<?xml version="1.0" standalone="no"?>
<!DOCTYPE svg PUBLIC "-//W3C//DTD SVG 20010904//EN"
 "http://www.w3.org/TR/2001/REC-SVG-20010904/DTD/svg10.dtd">
<svg version="1.0" xmlns="http://www.w3.org/2000/svg"
 width="513.000000pt" height="513.000000pt" viewBox="0 0 513.000000 513.000000"
 preserveAspectRatio="xMidYMid meet">
<metadata>
Created by potrace 1.14, written by Peter Selinger 2001-2017
</metadata>
<g transform="translate(0.000000,513.000000) scale(0.100000,-0.100000)"
fill="#000000" stroke="none">
<path d="M742 4871 c-16 -10 -391 -1497 -384 -1523 9 -36 46 -29 261 52 118
44 216 78 219 75 3 -2 -2 -71 -11 -152 -31 -276 -58 -606 -53 -628 3 -12 17
-27 32 -34 56 -25 61 -15 177 390 59 206 132 459 162 563 30 103 55 199 55
212 0 47 -25 45 -218 -13 -101 -31 -185 -54 -187 -52 -2 3 52 227 121 499 68
272 123 506 121 520 -1 19 -8 25 -27 25 -17 0 -26 -7 -31 -25 l-7 -25 -1 26
c-1 25 -5 27 -56 34 -59 7 -79 1 -71 -20 3 -8 1 -15 -3 -17 -12 -5 -93 -327
-85 -340 4 -6 3 -8 -4 -4 -6 4 -14 -12 -21 -41 -6 -27 -24 -97 -40 -158 -16
-60 -27 -113 -25 -117 3 -4 1 -8 -4 -8 -4 0 -14 -22 -21 -50 -7 -27 -39 -117
-71 -198 -32 -82 -60 -160 -63 -173 -4 -21 -4 -21 -6 -3 0 12 26 126 59 255
201 787 232 910 226 924 -6 17 -24 19 -44 6z m225 -143 c-3 -8 -6 -5 -6 6 -1
11 2 17 5 13 3 -3 4 -12 1 -19z m-16 -59 c-6 -24 -9 -28 -10 -12 -1 24 9 56
16 50 2 -3 0 -20 -6 -38z m-16 -79 c-9 -41 -17 -33 -9 9 4 17 9 30 11 27 3 -2
2 -19 -2 -36z m-31 -124 c-19 -79 -30 -84 -13 -5 15 70 19 83 24 78 2 -3 -3
-35 -11 -73z m-105 -415 c-84 -335 -115 -435 -58 -190 17 74 33 145 35 158 3
13 9 31 13 40 9 17 62 231 66 268 5 33 16 65 22 59 3 -3 -32 -154 -78 -335z
m274 -466 c-39 -135 -59 -191 -64 -179 -10 26 -11 42 -1 26 11 -17 81 235 76
273 -3 28 -3 28 5 5 7 -20 9 -21 10 -6 1 23 23 87 28 82 2 -2 -22 -92 -54
-201z m-53 171 c0 -2 -7 -7 -16 -10 -8 -3 -12 -2 -9 4 6 10 25 14 25 6z m-479
-29 c-10 -9 -11 -8 -5 6 3 10 9 15 12 12 3 -3 0 -11 -7 -18z m363 -16 c4 -5
-3 -7 -14 -4 -23 6 -26 13 -6 13 8 0 17 -4 20 -9z m-407 -73 c-3 -8 -6 -5 -6
6 -1 11 2 17 5 13 3 -3 4 -12 1 -19z m413 -83 c7 -9 10 -18 6 -22 -3 -3 -6 -1
-6 6 0 14 -68 11 -105 -4 -16 -6 -18 -5 -8 5 10 11 31 17 94 29 4 0 12 -6 19
-14z m-155 -40 c-44 -19 -81 -29 -72 -19 10 10 67 31 87 32 8 0 2 -5 -15 -13z
m-85 -29 c0 -6 -93 -37 -97 -32 -2 2 15 11 39 19 47 17 58 19 58 13z m237 -28
c-3 -8 -6 -5 -6 6 -1 11 2 17 5 13 3 -3 4 -12 1 -19z m-462 -28 c-6 -19 -6
-19 51 0 31 11 59 20 62 20 13 0 -8 -10 -70 -33 l-66 -26 10 30 c11 32 23 41
13 9z m562 -72 c-3 -8 -6 -5 -6 6 -1 11 2 17 5 13 3 -3 4 -12 1 -19z m-110
-30 c-3 -7 -5 -2 -5 12 0 14 2 19 5 13 2 -7 2 -19 0 -25z m77 -87 c-9 -34 -19
-60 -21 -58 -2 3 4 32 13 66 10 33 19 59 21 57 3 -2 -3 -32 -13 -65z m-97 -83
c-2 -13 -4 -5 -4 17 -1 22 1 32 4 23 2 -10 2 -28 0 -40z m62 -38 c-6 -25 -15
-49 -21 -55 -8 -7 -9 -4 -3 10 4 11 9 29 10 40 3 23 16 57 21 53 1 -2 -2 -24
-7 -48z m-35 -124 c-3 -15 -8 -25 -11 -23 -2 3 -1 17 3 31 3 15 8 25 11 23 2
-3 1 -17 -3 -31z m-20 -70 c-3 -15 -8 -25 -11 -23 -2 3 -1 17 3 31 3 15 8 25
11 23 2 -3 1 -17 -3 -31z m-25 -52 c1 11 3 17 6 14 3 -3 -4 -36 -15 -74 -14
-49 -19 -57 -15 -29 3 22 5 56 6 75 0 29 2 31 9 15 8 -19 9 -19 9 -1z"/>
<path d="M2594 4621 c-28 -12 -54 -49 -54 -76 0 -11 9 -38 19 -59 l20 -38 -27
6 c-115 27 -220 13 -250 -32 -14 -22 -14 -27 -1 -51 8 -14 25 -31 37 -37 19
-10 11 -15 -79 -49 -310 -117 -560 -367 -676 -674 -63 -168 -92 -396 -73 -582
6 -61 9 -113 7 -116 -2 -2 -35 -12 -72 -23 -149 -43 -254 -111 -298 -194 -32
-62 -30 -148 5 -208 64 -107 232 -205 466 -269 45 -12 82 -26 82 -30 0 -26
-138 -97 -209 -108 -40 -6 -51 -4 -80 18 -29 22 -45 26 -102 26 -81 0 -86 4
-166 126 -68 104 -93 120 -153 96 -39 -15 -40 -15 -38 6 1 12 -24 62 -56 111
-50 77 -60 87 -82 83 -21 -4 -32 6 -71 59 -26 35 -52 64 -58 64 -5 0 -35 32
-64 71 -30 39 -61 78 -69 85 -32 32 -89 4 -78 -39 6 -25 130 -192 188 -253 18
-19 26 -34 19 -38 -6 -4 -81 24 -168 63 -201 88 -197 87 -222 62 -46 -46 -36
-54 172 -154 97 -47 177 -89 176 -94 -4 -21 7 -32 82 -88 56 -42 88 -59 105
-57 24 3 24 3 8 -34 -14 -34 -14 -41 0 -71 9 -18 26 -38 39 -44 12 -5 29 -22
38 -37 13 -24 14 -32 1 -62 -19 -47 -11 -133 17 -192 47 -97 134 -161 226
-164 41 -1 62 -9 118 -47 80 -53 179 -92 274 -108 147 -24 133 -15 153 -96 51
-198 166 -388 303 -498 l48 -39 -82 -39 c-110 -52 -199 -137 -199 -188 0 -47
27 -72 80 -72 32 0 40 -3 40 -18 0 -9 12 -27 26 -38 32 -25 111 -28 172 -7 34
12 42 13 52 1 34 -41 131 -21 300 62 99 48 126 66 189 131 l74 74 91 -11 c143
-18 132 -12 145 -87 23 -129 78 -227 156 -278 62 -41 145 -30 170 21 l11 21
43 -29 c43 -28 99 -49 134 -49 35 0 78 30 83 59 l6 27 51 -17 c59 -20 96 -16
126 12 43 40 16 144 -56 216 l-38 38 84 -28 c133 -44 249 -61 406 -60 155 1
247 19 351 70 134 65 218 186 218 313 0 168 -146 318 -366 374 -86 22 -248 39
-338 34 -50 -2 -80 1 -80 7 0 5 7 46 15 90 8 44 14 98 15 121 0 35 4 43 28 54
15 7 52 13 82 14 170 6 337 194 311 351 -6 36 -3 42 30 72 43 39 51 67 33 119
-15 43 -5 64 28 64 11 0 50 33 92 78 120 127 344 380 354 399 13 25 -2 59 -30
66 -13 3 -97 15 -188 28 -91 12 -167 24 -169 25 -2 2 26 68 62 146 192 417
277 613 271 630 -8 27 -51 34 -76 12 -25 -22 -262 -339 -517 -688 -114 -157
-181 -258 -181 -273 0 -34 21 -39 220 -58 254 -23 257 -24 203 -75 -14 -14
-58 -65 -96 -113 -47 -59 -74 -86 -84 -83 -39 15 -66 17 -91 7 -23 -10 -115
-108 -168 -179 -9 -12 -16 -10 -47 11 -21 14 -57 33 -80 42 l-43 16 -23 92
c-23 90 -23 94 -8 172 138 690 -18 1273 -427 1601 -78 62 -220 142 -317 178
-38 14 -53 29 -87 80 -105 160 -322 288 -418 247z m143 -89 c93 -48 188 -139
245 -232 l21 -35 -44 43 c-25 23 -49 39 -54 35 -4 -5 -5 -3 -1 4 14 25 -240
181 -261 160 -3 -4 2 -19 11 -34 16 -26 15 -25 -13 5 -29 31 -39 61 -24 75 14
15 71 5 120 -21z m-16 -129 c13 -16 12 -17 -3 -4 -17 13 -22 21 -14 21 2 0 10
-8 17 -17z m-167 -12 c37 -10 75 -26 84 -34 14 -15 9 -15 -49 -1 -35 8 -97 17
-138 20 -79 5 -101 11 -80 25 24 15 111 10 183 -10z m-4 -103 c-129 -27 -357
-118 -345 -138 3 -5 0 -7 -7 -5 -7 3 -49 -18 -93 -47 -70 -45 -190 -157 -359
-335 -22 -23 -42 -40 -44 -38 -10 10 112 169 193 250 95 95 185 160 300 217
123 62 277 107 360 106 l40 0 -45 -10z m531 -54 c156 -64 250 -125 367 -238
233 -226 355 -507 382 -882 11 -151 -2 -401 -26 -514 -10 -48 -12 -53 -9 -20
39 392 29 595 -40 833 -45 155 -125 313 -224 442 -63 82 -170 187 -183 179 -6
-4 -8 -2 -4 4 9 15 -109 97 -239 164 -118 61 -128 74 -24 32z m197 -471 c-10
-2 -26 -2 -35 0 -10 3 -2 5 17 5 19 0 27 -2 18 -5z m-85 -10 c-7 -2 -21 -2
-30 0 -10 3 -4 5 12 5 17 0 24 -2 18 -5z m-1370 -35 c12 -6 48 -35 81 -65 32
-30 76 -65 97 -79 22 -13 39 -31 39 -39 0 -12 -6 -11 -30 6 -38 29 -69 16 -95
-37 -56 -118 22 -256 103 -181 l24 22 -7 -25 c-38 -126 -188 -205 -291 -152
-48 24 -74 53 -105 112 -21 39 -24 59 -24 145 0 81 4 109 21 146 27 58 89 128
129 145 37 16 32 16 58 2z m1247 -2 c0 -2 -7 -7 -16 -10 -8 -3 -12 -2 -9 4 6
10 25 14 25 6z m-50 -21 c0 -6 -56 -35 -67 -35 -4 1 8 9 27 20 39 22 40 22 40
15z m335 -24 c55 -25 126 -106 149 -172 27 -75 25 -185 -5 -264 -16 -44 -38
-75 -80 -116 -74 -73 -125 -93 -221 -87 -87 6 -134 27 -210 97 -30 28 -59 47
-63 43 -5 -4 -5 -1 -1 6 4 7 1 23 -7 35 -18 28 -48 119 -42 125 3 3 5 0 5 -6
0 -6 12 -24 26 -41 55 -66 142 -21 152 78 6 63 -2 92 -33 129 -31 37 -68 47
-104 29 -25 -13 -28 -12 -24 2 5 19 137 93 238 133 84 33 161 36 220 9z m-415
-16 c0 -2 -13 -11 -30 -20 -38 -19 -40 -11 -2 9 31 17 32 18 32 11z m-80 -45
c-8 -5 -19 -10 -25 -10 -5 0 -3 5 5 10 8 5 20 10 25 10 6 0 3 -5 -5 -10z
m-715 -10 c-3 -5 -14 -10 -23 -10 -15 0 -15 2 -2 10 20 13 33 13 25 0z m-159
-115 c8 -34 -1 -55 -25 -55 -24 0 -36 32 -21 60 15 28 38 25 46 -5z m2680 -98
c-29 -59 -55 -104 -59 -100 -4 3 0 15 10 25 9 10 14 20 12 22 -2 3 -21 -18
-42 -46 -26 -36 -36 -57 -32 -72 5 -17 4 -18 -4 -6 -10 14 -15 7 -12 -13 1 -5
-3 -6 -8 -3 -5 3 -17 -6 -26 -20 -9 -15 -12 -24 -7 -20 6 3 14 1 18 -5 4 -8 3
-9 -4 -5 -7 4 -22 -4 -34 -17 -27 -28 -118 -153 -120 -164 -1 -4 -14 -21 -29
-38 -21 -22 -25 -32 -17 -42 8 -10 7 -12 -4 -8 -10 4 -32 -15 -67 -59 -28 -36
-51 -70 -51 -75 0 -6 -8 -14 -17 -19 -21 -12 -2 -16 162 -34 66 -7 112 -14
103 -16 -9 -2 -78 4 -152 12 -74 9 -140 16 -146 16 -12 0 3 21 255 365 230
313 319 433 322 431 1 -1 -22 -50 -51 -109z m-1708 81 c25 -25 8 -78 -25 -78
-7 0 -17 9 -23 21 -9 16 -8 26 5 45 17 27 26 29 43 12z m-111 -30 c-3 -7 -5
-2 -5 12 0 14 2 19 5 13 2 -7 2 -19 0 -25z m-530 -94 c-3 -3 -12 -4 -19 -1 -8
3 -5 6 6 6 11 1 17 -2 13 -5z m-67 -14 c-8 -5 -22 -9 -30 -9 -10 0 -8 3 5 9
27 12 43 12 25 0z m-641 -93 c1 -5 -3 -6 -8 -3 -15 9 -21 -33 -22 -159 -1 -94
-3 -110 -10 -75 -10 57 -11 178 -2 261 l6 64 18 -40 c10 -22 18 -44 18 -48z
m925 29 c147 -53 293 -184 385 -347 42 -75 41 -93 -3 -85 -48 9 -111 -3 -149
-28 -24 -17 -39 -41 -62 -101 -79 -209 -179 -302 -384 -357 -109 -29 -349 -36
-496 -14 -243 35 -491 117 -609 200 -43 29 -47 36 -39 76 8 48 26 80 65 116
67 63 150 96 388 154 168 41 236 75 302 152 107 124 131 148 182 182 89 59
156 77 271 73 61 -2 119 -11 149 -21z m-454 -17 c-19 -16 -48 -39 -65 -51 -25
-18 -27 -19 -15 -3 15 18 101 85 110 84 3 0 -11 -13 -30 -30z m2489 -82 c-23
-53 -46 -94 -51 -91 -4 3 -8 10 -8 15 0 6 4 8 9 4 13 -8 24 30 16 58 -5 16 -4
18 3 8 8 -11 13 -8 25 15 8 16 13 39 12 51 -1 12 2 20 6 18 4 -3 10 2 13 11 4
9 9 15 12 12 2 -3 -14 -48 -37 -101z m-2609 -25 c-11 -15 -41 -49 -66 -77 -36
-39 -39 -41 -15 -10 17 22 44 56 60 75 16 19 27 39 24 44 -4 5 -1 6 6 2 8 -5
6 -15 -9 -34z m2546 -119 c-9 -15 -32 -64 -51 -108 -19 -44 -35 -75 -35 -69 0
24 89 218 97 210 3 -3 -2 -17 -11 -33z m-2691 -23 c-3 -5 -12 -10 -18 -10 -7
0 -6 4 3 10 19 12 23 12 15 0z m-45 -20 c-8 -5 -19 -10 -25 -10 -5 0 -3 5 5
10 8 5 20 10 25 10 6 0 3 -5 -5 -10z m-175 -40 c3 -5 1 -10 -4 -10 -6 0 -11 5
-11 10 0 6 2 10 4 10 3 0 8 -4 11 -10z m-996 -197 c36 -46 56 -80 50 -84 -6
-4 15 -39 51 -87 71 -92 77 -129 10 -55 -67 73 -166 199 -202 255 -29 45 0 46
39 2 33 -37 31 -24 -3 24 -9 12 -14 22 -11 22 3 0 33 -35 66 -77z m3874 50
c-7 -2 -21 -2 -30 0 -10 3 -4 5 12 5 17 0 24 -2 18 -5z m144 -19 c-3 -3 -12
-4 -19 -1 -8 3 -5 6 6 6 11 1 17 -2 13 -5z m128 -14 c27 -7 27 -8 5 -8 -14 0
-38 4 -55 8 -27 7 -27 8 -5 8 14 0 39 -4 55 -8z m59 -32 c-44 -52 -267 -298
-270 -298 -4 0 12 54 24 76 5 10 7 24 5 31 -6 16 14 26 23 12 5 -8 3 -9 -6 -4
-8 5 -11 3 -8 -6 3 -8 -1 -27 -10 -44 l-14 -30 30 29 c17 16 29 33 26 38 -3 5
-2 7 3 6 7 -3 45 32 85 80 9 11 13 24 10 29 -4 4 -3 5 2 1 5 -4 15 -3 23 3 10
9 11 15 1 28 -10 13 -10 14 2 4 11 -10 17 -9 32 4 21 19 24 37 5 30 -8 -3 -14
1 -14 9 0 16 13 19 22 4 4 -6 11 -7 17 -4 6 4 5 10 -3 15 -10 6 -7 9 10 9 24
0 24 0 5 -22z m-244 -67 c0 -3 -23 -4 -51 -2 -29 2 -47 6 -41 10 13 8 92 2 92
-8z m-3793 -114 c14 -20 24 -40 21 -43 -6 -5 -108 131 -108 143 1 10 52 -49
87 -100z m3828 92 c11 -16 1 -19 -13 -3 -7 8 -8 14 -3 14 5 0 13 -5 16 -11z
m-4172 -55 c48 -20 87 -41 87 -46 0 -6 -6 -8 -14 -5 -11 4 -11 1 -2 -20 7 -16
38 -38 89 -64 42 -22 77 -41 77 -44 0 -3 -53 21 -117 54 -65 32 -146 71 -180
86 -64 28 -75 41 -48 51 8 4 12 10 9 15 -9 15 8 11 99 -27z m4159 -6 c-8 -8
-9 -4 -5 13 4 13 8 18 11 10 2 -7 -1 -18 -6 -23z m-3958 -91 c44 -23 81 -48
84 -55 4 -14 -6 -10 -110 37 -41 18 -68 36 -68 46 0 21 5 20 94 -28z m3163 11
c-3 -8 -6 -5 -6 6 -1 11 2 17 5 13 3 -3 4 -12 1 -19z m697 0 c-3 -13 -20 -60
-36 -105 -45 -126 -55 -104 -18 38 9 33 44 89 56 89 3 0 2 -10 -2 -22z m-3599
-58 c25 -39 45 -73 45 -76 0 -3 -9 -19 -20 -34 -20 -29 -90 -76 -90 -61 0 4 9
12 21 17 20 9 18 12 -27 49 -27 21 -54 45 -61 53 -10 12 -16 11 -43 -8 -62
-44 -39 -12 35 49 41 34 75 67 75 72 0 24 23 3 65 -61z m-170 30 c3 -5 1 -10
-4 -10 -6 0 -11 5 -11 10 0 6 2 10 4 10 3 0 8 -4 11 -10z m2229 -42 c28 -73
39 -175 33 -313 -7 -144 -44 -486 -55 -496 -4 -4 -52 -10 -107 -14 l-101 -7
-22 119 c-13 65 -33 177 -46 250 l-23 132 33 32 c56 54 72 145 38 210 -8 17
-14 32 -12 33 2 1 28 10 58 21 30 10 82 31 115 46 33 15 63 28 66 28 3 1 14
-18 23 -41z m1467 -11 c-23 -60 -39 -127 -30 -121 7 4 9 -1 7 -12 -2 -11 -10
-18 -16 -16 -7 1 -11 -1 -10 -5 3 -9 -54 -92 -63 -93 -3 0 -16 11 -29 25 -20
21 -21 27 -9 43 43 58 154 202 156 202 1 0 -1 -10 -6 -23z m-605 -102 c9 -53
-2 -42 -15 14 -5 24 -6 39 -1 35 5 -5 12 -27 16 -49z m-218 8 c-16 -2 -40 -2
-55 0 -16 2 -3 4 27 4 30 0 43 -2 28 -4z m-2627 -44 l33 -42 -23 -18 c-31 -25
-34 -24 -65 16 l-26 34 22 24 c13 14 24 25 25 26 1 1 16 -18 34 -40z m-180 4
c13 -16 12 -17 -3 -4 -10 7 -18 15 -18 17 0 8 8 3 21 -13z m249 -1 c0 -12 -3
-12 -15 -2 -8 7 -15 13 -15 15 0 1 7 2 15 2 8 0 15 -7 15 -15z m2635 -23 c114
-29 244 -76 279 -102 13 -10 4 -12 -50 -10 -36 1 -69 5 -72 9 -4 4 0 4 8 -1
10 -5 12 -5 5 2 -5 6 -47 23 -92 38 -126 41 -252 95 -223 95 14 0 79 -14 145
-31z m-2532 -93 c69 -107 74 -116 57 -116 -5 0 -10 7 -10 15 0 8 -3 15 -7 16
-5 0 -17 3 -28 6 -11 2 -40 9 -65 13 l-45 9 48 -2 c35 -2 46 1 42 11 -3 7 0
10 5 7 16 -10 12 5 -9 31 -10 13 -22 20 -26 16 -5 -4 -6 -2 -2 3 3 6 -2 21
-12 34 l-18 23 -25 -25 c-14 -14 -23 -29 -19 -32 3 -4 1 -5 -4 -4 -6 2 -32 -7
-58 -20 -55 -25 -78 -22 -76 11 l2 23 4 -22 c2 -13 10 -23 17 -23 21 0 103 59
133 95 15 18 28 34 29 34 1 1 31 -46 67 -103z m3049 59 c3 -13 2 -22 -2 -20
-9 6 -53 -41 -56 -60 -1 -8 4 -11 13 -8 12 5 12 7 1 14 -8 5 -9 9 -2 9 6 0 17
-6 23 -13 8 -11 3 -16 -24 -24 -26 -8 -34 -8 -29 0 3 7 -3 1 -14 -12 -11 -14
-30 -26 -42 -28 l-22 -3 24 29 c85 106 114 140 119 141 4 0 9 -11 11 -25z m98
-85 c17 -7 29 -15 26 -17 -11 -12 -96 50 -96 70 0 5 9 -2 20 -15 10 -14 33
-31 50 -38z m-2509 -82 c-13 -132 -14 -413 -2 -475 8 -40 7 -43 -14 -43 -19 0
-24 7 -30 43 -14 78 -8 358 10 477 18 125 22 137 37 122 7 -7 7 -48 -1 -124z
m602 86 l36 -41 -24 -89 c-13 -49 -48 -168 -77 -264 l-54 -175 -39 -6 c-115
-18 -123 -18 -129 5 -15 61 -27 315 -21 444 l7 142 72 1 c39 0 96 7 126 14 30
6 58 12 61 11 3 -1 22 -19 42 -42z m1837 15 c0 -5 -8 -9 -17 -8 -11 0 -13 3
-5 6 6 2 9 10 6 15 -4 7 -2 8 4 4 7 -4 12 -11 12 -17z m34 -27 c2 -4 -11 -6
-30 -4 -19 2 -34 6 -34 8 0 8 59 4 64 -4z m106 -6 c0 -2 -7 -7 -16 -10 -8 -3
-12 -2 -9 4 6 10 25 14 25 6z m-562 -18 c-9 -7 -26 -29 -37 -48 -12 -19 -21
-30 -21 -25 0 17 50 85 62 85 7 0 5 -6 -4 -12z m172 -18 c11 -11 20 -25 20
-31 0 -6 -9 -1 -19 12 -38 47 -133 23 -169 -43 -10 -16 -22 -37 -29 -46 -10
-14 -11 -12 -4 13 16 55 23 66 60 90 46 32 112 34 141 5z m-2277 -12 c-3 -13
-10 -28 -14 -34 -5 -6 -5 -15 -1 -19 4 -5 2 -5 -5 -1 -7 4 -37 0 -67 -9 -60
-18 -117 -17 -123 1 -2 7 15 13 42 16 25 3 71 19 103 35 72 38 71 38 65 11z
m-312 -14 c28 -14 69 -87 68 -120 0 -11 -7 -3 -17 21 -23 56 -32 66 -44 59 -6
-4 -8 -3 -5 3 4 6 -9 19 -28 29 -29 15 -40 17 -65 7 -34 -13 -31 3 4 17 23 9
46 5 87 -16z m-254 -30 c25 -22 25 -24 3 -10 -13 9 -36 16 -50 16 -37 0 -89
-36 -106 -73 l-15 -32 6 30 c8 37 31 64 70 81 44 19 61 17 92 -12z m1303 -141
c-26 -110 -40 -158 -76 -276 -6 -17 2 -18 138 -13 l143 5 -135 -10 c-74 -5
-147 -14 -162 -19 -16 -5 -28 -8 -28 -6 0 2 11 39 25 82 25 76 80 262 106 354
7 26 14 38 16 28 3 -10 -10 -75 -27 -145z m1567 115 c-3 -7 -5 -2 -5 12 0 14
2 19 5 13 2 -7 2 -19 0 -25z m-1960 0 c-3 -8 -6 -5 -6 6 -1 11 2 17 5 13 3 -3
4 -12 1 -19z m-907 -3 c0 -2 -10 -9 -22 -15 -22 -11 -22 -10 -4 4 21 17 26 19
26 11z m3177 -47 c-3 -7 -5 -2 -5 12 0 14 2 19 5 13 2 -7 2 -19 0 -25z m-3246
-11 l-24 -22 19 27 c10 14 21 24 23 22 3 -3 -6 -15 -18 -27z m606 -29 c-2 -13
-4 -3 -4 22 0 25 2 35 4 23 2 -13 2 -33 0 -45z m2146 -64 c18 -21 17 -22 -15
-45 l-33 -23 23 26 c36 40 4 42 -59 2 -30 -18 -75 -41 -101 -51 -27 -9 -48
-21 -48 -27 0 -5 -3 -7 -6 -3 -10 9 -64 -14 -57 -26 3 -5 1 -7 -4 -4 -6 4 -28
1 -49 -6 -24 -9 -33 -16 -25 -21 6 -4 17 -3 24 2 7 5 20 7 30 3 27 -10 -76
-35 -109 -27 -14 4 -23 3 -21 -1 3 -5 -3 -9 -14 -9 -33 0 -6 15 172 95 96 42
196 91 224 109 27 17 50 30 50 29 0 -1 8 -12 18 -23z m-2350 -44 c37 -16 97
-38 134 -48 l68 -19 3 -42 c3 -37 1 -42 -15 -38 -132 38 -198 62 -245 92 -63
40 -70 54 -35 71 12 7 23 12 23 13 1 0 31 -12 67 -29z m2307 5 c-7 -8 -17 -15
-22 -15 -11 0 14 29 26 30 5 0 3 -7 -4 -15z m-395 -65 c-3 -5 -12 -10 -18 -10
-7 0 -6 4 3 10 19 12 23 12 15 0z m-1348 -32 c-3 -7 -5 -2 -5 12 0 14 2 19 5
13 2 -7 2 -19 0 -25z m1282 8 c-10 -9 -89 -46 -89 -41 0 6 72 44 84 45 5 0 7
-2 5 -4z m-1955 -25 c14 -22 176 -85 260 -102 51 -9 66 -21 66 -51 0 -18 -15
-19 -105 -2 -98 19 -275 94 -275 117 0 13 30 47 41 47 4 0 10 -4 13 -9z m1826
-35 c0 -2 -13 -9 -30 -15 -35 -12 -41 -5 -7 9 25 10 37 12 37 6z m480 -26 c-8
-5 -19 -10 -25 -10 -5 0 -3 5 5 10 8 5 20 10 25 10 6 0 3 -5 -5 -10z m-596 -8
c2 -4 -5 -9 -17 -9 -17 -2 -19 0 -7 7 18 12 18 12 24 2z m43 2 c-3 -3 -12 -4
-19 -1 -8 3 -5 6 6 6 11 1 17 -2 13 -5z m-1070 -26 c-3 -8 -6 -5 -6 6 -1 11 2
17 5 13 3 -3 4 -12 1 -19z m1849 -30 c-3 -13 -10 -57 -17 -98 -14 -87 -70
-269 -100 -320 -11 -19 -18 -28 -15 -20 3 8 18 56 34 105 30 90 62 251 62 310
0 35 6 45 27 45 9 0 12 -8 9 -22z m-1889 -24 c-3 -3 -12 -4 -19 -1 -8 3 -5 6
6 6 11 1 17 -2 13 -5z m421 -1 c-10 -2 -26 -2 -35 0 -10 3 -2 5 17 5 19 0 27
-2 18 -5z m-183 -19 c-71 -8 -134 -12 -140 -10 -17 6 136 23 205 23 47 1 30
-3 -65 -13z m670 -56 c-19 -152 -65 -258 -145 -338 -72 -72 -132 -94 -238 -88
-174 10 -299 127 -382 356 -13 34 -21 64 -19 66 2 2 41 7 85 11 l82 7 32 -48
c55 -79 150 -184 167 -184 21 0 159 141 201 205 33 49 34 50 95 56 34 3 77 6
95 7 l34 2 -7 -52z m-955 32 c-73 -11 -198 -12 -204 -2 -2 4 55 8 127 8 100 1
119 0 77 -6z m-135 -91 c11 -51 51 -140 59 -132 4 4 4 1 1 -8 -3 -8 10 -41 30
-73 44 -74 44 -82 -1 -31 -77 88 -144 208 -144 262 0 11 29 23 42 16 3 -2 9
-17 13 -34z m2329 -140 c10 -49 -11 -107 -56 -153 -22 -22 -35 -33 -30 -22 5
10 6 36 2 58 -13 69 -69 126 -128 130 -19 1 -36 6 -38 10 -3 4 51 8 119 8
l125 0 6 -31z m-1996 -4 c-3 -3 -9 2 -12 12 -6 14 -5 15 5 6 7 -7 10 -15 7
-18z m2138 5 c109 -28 194 -70 253 -125 l50 -47 -34 -35 c-31 -32 -65 -39 -49
-10 4 7 4 9 0 5 -5 -4 -32 13 -62 38 -67 54 -132 88 -213 110 -45 13 -61 22
-61 35 0 9 -3 24 -6 33 -8 22 24 21 122 -4z m-62 -85 c72 -22 175 -81 224
-128 43 -42 54 -64 26 -53 -8 3 -13 2 -9 -3 6 -12 -87 -69 -179 -111 l-68 -30
-52 49 c-28 28 -69 64 -91 81 -22 18 -42 34 -44 36 -8 8 34 34 46 29 7 -2 12
-1 10 3 -1 4 14 28 34 52 20 25 40 55 43 68 4 12 8 22 9 22 1 0 24 -7 51 -15z
m-1444 -109 c0 -2 -7 -7 -16 -10 -8 -3 -12 -2 -9 4 6 10 25 14 25 6z m1839
-51 c0 -5 -6 1 -14 15 -19 34 -19 12 1 -35 8 -21 13 -44 10 -52 -3 -8 -1 -11
4 -8 6 3 10 2 10 -4 0 -5 -4 -13 -10 -16 -5 -3 -10 -11 -10 -16 0 -6 4 -7 10
-4 6 3 7 -1 4 -10 -4 -10 -18 4 -46 50 l-39 66 28 33 c27 32 28 32 40 12 7
-12 12 -25 12 -31z m-670 -6 c-13 -10 -28 -19 -34 -19 -5 0 0 8 13 18 18 14
20 20 10 31 -11 11 -9 11 11 1 l24 -12 -24 -19z m128 -66 c76 -62 115 -101
106 -106 -15 -8 -139 -47 -181 -56 -39 -8 -43 -7 -39 7 2 10 12 49 22 87 10
39 20 77 23 85 3 8 4 18 4 23 -3 13 7 7 65 -40z m477 -17 c14 -25 26 -47 26
-50 0 -13 -100 -54 -165 -69 -130 -30 -135 -30 -156 -11 -10 9 -19 22 -19 28
0 12 137 72 158 70 7 -1 11 1 8 4 -8 7 105 82 115 76 4 -2 19 -24 33 -48z
m-334 -121 c7 -9 11 -18 8 -20 -2 -2 -38 -7 -79 -10 l-74 -6 60 25 c75 30 70
29 85 11z m-2061 -86 c30 -16 60 -29 67 -29 21 0 17 -8 -21 -41 -19 -17 -43
-45 -55 -63 -17 -28 -29 -35 -79 -46 -70 -15 -111 -8 -111 19 0 21 82 101 131
127 31 17 32 19 12 22 -32 5 -101 -29 -155 -77 -46 -41 -66 -52 -52 -28 6 9 4
9 -7 1 -8 -6 -22 -9 -31 -5 -14 5 -14 9 8 34 14 16 29 25 36 21 6 -4 8 -3 5 3
-9 14 19 37 34 27 8 -4 9 -3 5 5 -10 16 112 73 139 65 11 -4 44 -20 74 -35z
m250 -58 l24 -6 -35 -38 c-41 -43 -103 -73 -171 -82 -34 -5 -47 -3 -47 6 0 20
49 97 72 114 23 15 111 19 157 6z m1188 -53 c49 -47 93 -111 93 -136 0 -5 -19
-6 -43 -2 -40 6 -111 48 -194 115 -44 37 -48 17 -8 -39 37 -53 60 -110 50
-126 -18 -29 -122 9 -179 65 -17 17 -43 49 -58 73 -15 23 -32 42 -38 42 -13 0
-13 -8 6 -62 8 -26 14 -64 12 -85 -3 -36 -5 -38 -40 -41 -33 -3 -43 2 -80 40
-32 31 -50 61 -65 108 -12 36 -20 67 -18 69 2 2 27 -2 56 -9 38 -9 91 -11 188
-5 75 4 150 7 166 6 17 -1 44 8 60 18 17 11 31 20 33 20 2 1 28 -23 59 -51z"/>
<path d="M2159 3107 c-59 -45 -35 -123 31 -102 29 9 53 60 41 84 -17 30 -46
38 -72 18z m53 -32 c0 -5 -5 -11 -11 -13 -6 -2 -11 4 -11 13 0 9 5 15 11 13 6
-2 11 -8 11 -13z"/>
<path d="M2395 3098 c-50 -27 -62 -87 -21 -113 62 -41 145 66 84 109 -26 19
-36 19 -63 4z m65 -37 c0 -14 -18 -23 -30 -16 -6 4 -8 11 -5 16 8 12 35 12 35
0z"/>
<path d="M2029 3063 c-13 -16 -12 -17 4 -4 9 7 17 15 17 17 0 8 -8 3 -21 -13z"/>
<path d="M1140 2104 c0 -8 5 -12 10 -9 6 4 8 11 5 16 -9 14 -15 11 -15 -7z"/>
<path d="M3387 1673 c-3 -5 6 -9 20 -10 19 -1 22 1 12 8 -17 11 -26 11 -32 2z"/>
<path d="M2176 683 c-6 -14 -5 -15 5 -6 7 7 10 15 7 18 -3 3 -9 -2 -12 -12z"/>
<path d="M631 3313 c-16 -56 -14 -93 5 -100 26 -10 45 25 38 67 -14 82 -27 92
-43 33z"/>
<path d="M561 3118 c-18 -51 -25 -144 -12 -152 32 -20 76 50 65 103 -9 41 -26
81 -34 81 -5 0 -13 -15 -19 -32z m26 -75 c-3 -10 -5 -4 -5 12 0 17 2 24 5 18
2 -7 2 -21 0 -30z"/>
<path d="M206 2949 c36 -41 37 -49 14 -74 l-22 -23 46 -31 c25 -18 46 -35 46
-38 0 -4 -7 -14 -16 -24 -14 -15 -11 -19 38 -47 58 -34 79 -33 36 2 -32 25
-34 33 -13 56 14 16 12 20 -22 45 -21 16 -40 30 -43 32 -3 3 6 13 20 23 l25
19 -25 18 c-13 10 -42 29 -65 42 l-40 24 21 -24z"/>
</g>
</svg>
