<?xml version="1.0" standalone="no"?>
<!DOCTYPE svg PUBLIC "-//W3C//DTD SVG 20010904//EN"
 "http://www.w3.org/TR/2001/REC-SVG-20010904/DTD/svg10.dtd">
<svg version="1.0" xmlns="http://www.w3.org/2000/svg"
 width="351.000000pt" height="351.000000pt" viewBox="0 0 351.000000 351.000000"
 preserveAspectRatio="xMidYMid meet">
<metadata>
Created by potrace 1.14, written by Peter Selinger 2001-2017
</metadata>
<g transform="translate(0.000000,351.000000) scale(0.100000,-0.100000)"
fill="#000000" stroke="none">
<path d="M1683 2980 c-60 -36 -79 -112 -48 -188 12 -27 15 -68 14 -157 -1
-107 -3 -123 -22 -142 -19 -22 -22 -22 -39 -6 -24 22 -26 154 -2 173 23 20 14
69 -17 93 -61 45 -130 -36 -84 -97 10 -14 15 -45 15 -100 0 -73 2 -82 27 -108
l27 -28 -24 -25 -24 -25 -53 52 -54 53 4 90 c3 50 8 104 12 120 10 46 -24 85
-75 85 -81 0 -109 -85 -48 -142 31 -29 33 -34 35 -111 l2 -81 61 -61 61 -61
-22 -20 c-21 -19 -21 -19 -54 19 -33 38 -65 49 -65 22 0 -8 16 -32 35 -54 30
-33 33 -40 20 -51 -13 -10 -22 -5 -60 32 -41 42 -45 50 -45 95 0 43 -4 53 -35
83 -26 26 -35 42 -35 68 0 45 -14 68 -46 76 -40 10 -74 -16 -74 -58 0 -31 24
-66 46 -66 6 0 24 -15 42 -33 29 -30 32 -38 32 -97 0 -64 0 -65 52 -117 l52
-53 -26 -27 -26 -26 -66 58 -66 57 0 59 c0 33 0 62 -1 67 0 4 -10 17 -21 30
-17 17 -33 22 -72 22 -43 0 -53 3 -61 22 -24 54 -107 48 -131 -8 -18 -43 -3
-82 39 -102 23 -11 32 -11 59 2 17 9 48 16 70 16 l38 0 0 -66 0 -67 78 -72 77
-73 -29 -31 -30 -31 -161 0 c-148 0 -162 2 -178 20 -34 40 -107 10 -107 -44 0
-44 52 -76 89 -57 11 6 78 11 153 11 l133 0 -47 -45 -47 -45 -127 0 c-70 0
-153 5 -184 12 -52 10 -61 9 -101 -10 -53 -26 -81 -68 -81 -125 -1 -53 24
-102 65 -128 26 -16 42 -19 87 -14 30 4 114 8 185 11 l131 5 41 -40 c23 -23
41 -41 40 -41 -16 -5 -229 0 -249 5 -37 10 -63 -1 -76 -31 -17 -35 -15 -47 8
-72 26 -27 61 -28 85 -2 17 18 31 20 165 20 135 0 148 -2 165 -20 18 -20 18
-22 -33 -73 l-52 -53 0 -73 0 -74 -83 7 c-102 8 -128 -6 -130 -67 -2 -90 112
-113 144 -29 8 21 15 23 54 21 36 -2 50 2 70 21 23 22 25 31 24 93 -2 68 -1
69 39 110 35 35 43 39 57 27 14 -12 12 -18 -27 -57 -39 -40 -41 -44 -26 -59
15 -15 20 -13 61 25 42 39 45 40 60 23 16 -17 13 -21 -33 -67 -48 -48 -50 -51
-50 -106 0 -47 -5 -63 -26 -88 -14 -17 -34 -31 -43 -31 -47 0 -67 -74 -31
-110 25 -25 41 -25 74 1 18 14 26 30 26 53 0 24 9 41 35 66 29 28 35 41 35 76
0 65 72 142 106 113 13 -10 10 -17 -21 -49 -64 -66 -37 -106 29 -41 l42 41 22
-22 22 -22 -71 -73 -70 -72 2 -65 c2 -61 1 -67 -29 -94 -40 -38 -44 -87 -9
-120 53 -50 147 -6 132 61 -4 18 -9 68 -12 112 l-4 80 58 58 59 57 22 -23 22
-23 -30 -29 c-28 -27 -30 -34 -30 -101 0 -49 -5 -82 -17 -101 -33 -58 13 -119
75 -97 38 13 52 57 29 96 -10 18 -17 51 -17 82 0 43 4 57 25 76 25 23 25 23
40 4 20 -27 20 -258 0 -294 -21 -37 -19 -107 5 -145 73 -118 255 -60 252 80 0
24 -5 52 -11 63 -6 12 -11 77 -11 154 0 150 8 173 47 136 29 -27 32 -110 6
-156 -36 -62 24 -126 85 -91 32 18 43 77 18 99 -12 9 -16 32 -16 88 0 71 -2
78 -30 107 l-30 31 23 22 24 22 61 -64 c62 -64 62 -65 62 -124 0 -32 -7 -72
-15 -89 -27 -55 8 -113 69 -113 38 0 55 10 71 41 22 42 19 57 -20 96 -33 33
-35 39 -35 102 l0 67 -70 69 -70 69 22 23 22 23 43 -42 c40 -39 44 -41 59 -26
15 15 13 20 -25 60 -31 34 -38 47 -29 56 18 18 28 15 69 -25 34 -33 39 -44 39
-83 0 -40 5 -51 40 -85 21 -21 37 -42 34 -47 -11 -17 6 -58 30 -73 17 -12 30
-13 49 -6 53 21 59 92 8 114 -14 6 -41 24 -58 41 -30 27 -33 36 -33 86 0 54
-2 58 -50 105 -46 46 -49 50 -33 67 15 17 18 16 60 -23 41 -38 46 -40 61 -25
15 15 13 19 -26 59 -38 39 -41 45 -27 57 14 11 22 7 60 -30 45 -44 45 -44 45
-115 0 -90 20 -114 90 -108 43 3 46 1 57 -27 21 -55 91 -60 127 -8 22 31 20
60 -5 92 -21 27 -22 27 -110 20 l-89 -7 0 80 0 80 -51 47 c-49 46 -51 48 -34
67 16 17 32 19 162 19 130 0 148 -2 170 -20 31 -24 51 -25 81 -4 48 33 10 123
-46 110 -39 -9 -37 -9 -157 -8 l-109 2 39 41 40 40 130 -5 c72 -2 153 -8 181
-11 63 -8 103 9 134 60 59 95 -7 222 -113 218 -23 -1 -110 -5 -194 -9 l-152
-6 -46 38 c-25 21 -45 42 -45 47 0 7 171 5 304 -4 34 -2 56 22 56 61 0 54 -69
80 -105 40 -17 -18 -31 -20 -176 -20 l-159 0 -31 28 -32 29 76 73 77 73 0 68
0 69 38 0 c22 0 53 -7 69 -15 51 -26 113 14 113 73 0 33 -43 72 -80 72 -29 0
-70 -29 -70 -50 0 -5 -24 -10 -53 -10 -73 0 -87 -17 -87 -101 l0 -65 -68 -67
-68 -67 -29 31 -30 31 53 48 c52 49 52 49 52 110 0 54 4 67 31 101 17 21 37
39 44 39 16 0 55 47 55 67 0 19 -45 63 -65 63 -9 0 -27 -12 -42 -26 -19 -19
-24 -32 -20 -53 5 -23 -1 -35 -34 -67 -35 -34 -39 -43 -39 -89 0 -47 -3 -54
-45 -95 -38 -37 -46 -41 -60 -30 -14 12 -12 17 20 50 35 36 46 70 23 70 -7 0
-29 -17 -50 -37 -36 -35 -39 -36 -55 -20 -16 16 -14 21 45 80 l62 63 0 81 c0
80 1 82 36 117 31 31 36 41 30 69 -8 41 -39 67 -82 67 -37 0 -73 -28 -75 -57
-2 -32 3 -58 12 -67 5 -6 9 -46 9 -91 l0 -81 -55 -54 -55 -54 -25 24 -25 24
25 26 c22 23 25 34 25 107 0 64 4 89 20 116 16 27 18 40 10 61 -21 55 -97 55
-122 0 -10 -22 -9 -31 5 -56 25 -43 24 -159 -1 -182 -18 -15 -20 -15 -35 2
-23 25 -24 266 -2 330 43 123 -91 230 -202 162z m107 -95 c10 -12 10 -21 2
-40 -13 -29 -43 -33 -66 -9 -19 18 -19 20 -6 45 13 23 52 25 70 4z m-422 -167
c32 -32 -2 -79 -43 -60 -39 18 -27 72 15 72 9 0 21 -5 28 -12z m422 -115 l-1
-128 368 -362 368 -362 122 -1 121 0 -2 -41 -2 -42 -104 2 -103 2 -384 -383
-383 -383 0 -122 0 -123 -35 0 -35 0 0 122 0 123 -377 377 -378 378 -111 0
-111 0 -1 45 0 45 125 0 125 0 364 362 364 362 0 128 0 128 35 0 35 0 0 -127z
m415 93 c0 -36 -26 -56 -49 -37 -31 26 -11 75 29 69 15 -2 20 -11 20 -32z
m-1060 -167 c0 -7 -8 -15 -17 -17 -18 -3 -25 18 -11 32 10 10 28 1 28 -15z
m1254 -16 c-15 -18 -34 -1 -25 22 5 14 9 15 21 5 12 -10 13 -16 4 -27z m-1765
-779 c30 -30 13 -74 -29 -74 -42 0 -59 44 -29 74 8 9 22 16 29 16 7 0 21 -7
29 -16z m2300 0 c30 -30 13 -74 -29 -74 -42 0 -59 44 -29 74 8 9 22 16 29 16
7 0 21 -7 29 -16z m-1789 -845 c0 -7 -8 -15 -17 -17 -18 -3 -25 18 -11 32 10
10 28 1 28 -15z m1255 -5 c0 -8 -7 -14 -15 -14 -15 0 -21 21 -9 33 10 9 24 -2
24 -19z m-1030 -169 c26 -32 -13 -81 -47 -59 -35 22 -23 74 17 74 10 0 23 -7
30 -15z m828 3 c31 -31 3 -76 -39 -63 -33 11 -18 75 16 75 6 0 16 -5 23 -12z
m-410 -170 c30 -30 0 -75 -42 -64 -29 7 -40 31 -26 57 12 21 50 25 68 7z"/>
<path d="M1410 2046 c-189 -189 -346 -348 -347 -353 -4 -10 682 -693 695 -693
4 0 163 156 355 348 l347 347 -172 168 c-95 93 -254 249 -353 348 l-180 179
-345 -344z m638 -86 c23 -10 42 -22 42 -25 0 -3 -7 -22 -15 -41 -14 -34 -15
-35 -37 -20 -27 19 -69 21 -86 4 -27 -27 -14 -65 38 -109 73 -61 94 -99 88
-158 -12 -124 -132 -169 -232 -88 l-30 24 23 37 23 36 30 -25 c49 -41 98 -29
98 24 0 18 -17 42 -59 81 -70 66 -81 85 -81 142 0 54 30 105 73 123 44 19 74
18 125 -5z m-485 -107 c23 -61 44 -110 48 -108 4 3 10 16 13 30 4 14 20 63 37
110 l31 85 39 0 39 0 0 -265 0 -265 -40 0 -40 0 0 137 c0 75 -3 133 -7 129 -4
-4 -17 -33 -28 -64 -18 -52 -23 -57 -49 -57 -27 0 -31 5 -50 60 l-21 60 -3
-132 -3 -133 -44 0 -45 0 0 266 0 265 41 -3 42 -3 40 -112z"/>
<path d="M800 2200 c-59 -59 -19 -150 66 -150 46 0 80 48 74 105 -6 59 -97 88
-140 45z m88 -32 c17 -17 15 -44 -4 -62 -22 -23 -41 -20 -59 8 -13 19 -14 29
-5 45 12 23 49 28 68 9z"/>
<path d="M2600 2200 c-81 -81 30 -201 116 -126 37 31 38 84 4 121 -30 32 -90
35 -120 5z m88 -32 c35 -35 -15 -99 -53 -68 -30 25 -12 80 25 80 9 0 21 -5 28
-12z"/>
<path d="M1004 2085 c-9 -23 3 -45 25 -45 20 0 37 32 26 50 -9 15 -45 12 -51
-5z"/>
<path d="M2460 2085 c-11 -13 -11 -19 3 -32 21 -21 49 -9 45 19 -4 28 -30 35
-48 13z"/>
<path d="M985 1370 c-4 -6 -3 -16 3 -22 6 -6 12 -6 17 2 4 6 3 16 -3 22 -6 6
-12 6 -17 -2z"/>
<path d="M2505 1370 c-4 -6 -3 -16 3 -22 6 -6 12 -6 17 2 4 6 3 16 -3 22 -6 6
-12 6 -17 -2z"/>
<path d="M812 1363 c-17 -6 -42 -57 -42 -83 0 -30 53 -80 85 -80 84 0 120 108
52 155 -21 15 -69 19 -95 8z m78 -48 c17 -21 4 -62 -22 -71 -42 -13 -70 53
-34 78 18 12 43 9 56 -7z"/>
<path d="M2596 1339 c-34 -40 -33 -74 3 -110 48 -48 111 -36 137 26 37 89 -78
158 -140 84z m92 -21 c34 -34 -6 -90 -48 -68 -35 19 -20 80 20 80 9 0 21 -5
28 -12z"/>
</g>
</svg>
